<?xml version="1.0" encoding="UTF-8"?>
<svg id="Layer_1" data-name="Layer 1" xmlns="http://www.w3.org/2000/svg" viewBox="0 0 160 57">
  <defs>
    <style>
      .cls-1 {
        fill: #010001;
      }

      .cls-1, .cls-2 {
        stroke-width: 0px;
      }

      .cls-2 {
        fill: #c81c25;
      }
    </style>
  </defs>
  <path class="cls-2" d="m6.49,27.77c0-2.05,0-4.1,0-6.15,0-.2.02-.41.03-.61,0-.11.06-.17.17-.17.04,0,.08,0,.12,0,2.43,0,4.86,0,7.29,0,.36,0,.36,0,.36.36,0,.53,0,1.06,0,1.59.06,3.77,0,7.54.03,11.3,0,.49,0,.45-.45.45-2.39,0-4.78,0-7.18,0-.33,0-.33,0-.36-.32-.01-.09-.02-.19-.02-.28,0-2.06,0-4.13,0-6.19h0Z"/>
  <path class="cls-1" d="m111.06,27.74c0-1.76,0-3.52,0-5.28,0-.12,0-.25.02-.37.01-.1-.02-.15-.12-.15-.16,0-.31,0-.47,0-.07,0-.14,0-.21,0-.09,0-.13-.05-.13-.13,0-.23,0-.47.02-.7,0-.09.05-.13.14-.13.03,0,.06,0,.09,0,1.49,0,2.99-.01,4.48-.02.64,0,1.28.01,1.92.13,1.32.24,2.38.87,2.98,2.11.4.83.4,1.69.08,2.55-.36.98-1.09,1.62-1.97,2.11-.16.09-.34.16-.51.23-.18.08-.21.12-.13.3.26.67.56,1.32.92,1.95.59,1.03,1.31,1.98,2.03,2.92.21.27.46.41.81.35.1-.02.2-.01.3,0,.11,0,.17.06.17.18,0,.17,0,.34,0,.52,0,.21-.03.23-.23.24-.41.02-.83.04-1.24.04-.44,0-.88,0-1.31-.02-.15,0-.26-.06-.35-.19-.67-.93-1.28-1.89-1.84-2.88-.49-.86-.94-1.75-1.34-2.66-.06-.14-.11-.27-.17-.41-.04-.09-.12-.15-.22-.15-.38,0-.77,0-1.15,0-.19,0-.19.03-.19.21-.01,1.64-.01,3.28.02,4.93,0,.16,0,.17.17.17.2,0,.41,0,.61.01.15,0,.18.03.18.18,0,.16,0,.33,0,.49,0,.21-.02.23-.23.24-.38.02-.77.04-1.15.04-.81,0-1.61,0-2.42,0-.44,0-.45-.02-.45-.47,0-.09,0-.19,0-.28,0-.16.02-.19.18-.2.16,0,.33,0,.49,0,.23,0,.23-.01.23-.24,0-1.88,0-3.75,0-5.63h0Zm2.36-3.15h-.01c0,.82,0,1.64,0,2.46,0,.22,0,.23.21.24.73.01,1.47.02,2.2-.02.17,0,.34-.05.49-.14.7-.42,1.11-1.08,1.33-1.84.17-.59.13-1.19-.1-1.77-.4-1.02-1.09-1.61-2.23-1.61-.55,0-1.11,0-1.66.02-.23,0-.23,0-.23.25,0,.8,0,1.61,0,2.41h0Z"/>
  <path class="cls-1" d="m17.16,27.74c0-1.76,0-3.52,0-5.28,0-.09,0-.19,0-.28,0-.24,0-.24-.22-.24-.18,0-.36,0-.54,0-.17,0-.19-.02-.19-.19,0-.2,0-.41.02-.61.01-.15.03-.17.19-.17,1.7,0,3.39-.05,5.09,0,.65.02,1.3.08,1.92.29,1.26.43,2.14,1.25,2.62,2.5.22.57.34,1.15.43,1.75.27,1.84.22,3.66-.19,5.48-.14.64-.38,1.25-.78,1.79-.61.82-1.4,1.34-2.4,1.56-.67.15-1.34.21-2.02.21-1.49.02-2.99.02-4.48,0-.05,0-.09,0-.14,0-.24-.01-.26-.03-.26-.26,0-.17,0-.34,0-.52,0-.14.04-.17.19-.18.16,0,.33,0,.49,0,.25-.01.26-.02.26-.27,0-.7,0-1.39,0-2.09,0-1.17,0-2.33,0-3.5h0Zm2.31.05h0c0,1.85,0,3.71,0,5.56,0,.23,0,.24.23.24.48,0,.95,0,1.43,0,.31,0,.61-.05.91-.12.4-.09.74-.28,1.02-.58.4-.43.66-.92.84-1.47.24-.74.37-1.5.44-2.27.11-1.31.06-2.61-.15-3.9-.11-.7-.3-1.37-.66-1.99-.38-.66-.92-1.1-1.69-1.22-.71-.11-1.43-.1-2.15-.11-.02,0-.05,0-.07,0-.09,0-.13.04-.13.13,0,.14-.01.28-.01.42,0,1.77,0,3.53,0,5.3h0Z"/>
  <path class="cls-1" d="m98.05,27.86c.03,1.03-.1,2.05-.35,3.06-.2.83-.53,1.6-1.06,2.27-.57.71-1.31,1.14-2.17,1.4-.71.22-1.43.27-2.16.2-1.17-.12-2.22-.52-3.03-1.42-.56-.62-.91-1.36-1.14-2.15-.54-1.85-.55-3.73-.28-5.62.12-.85.35-1.68.74-2.46.49-.96,1.24-1.64,2.23-2.05.72-.29,1.46-.46,2.24-.4.96.07,1.87.32,2.67.85.8.53,1.31,1.28,1.65,2.16.33.86.5,1.76.58,2.67.04.49.07.98.06,1.49h0Zm-2.33.15c0-1.18-.06-2.1-.23-3.13-.1-.6-.26-1.18-.52-1.72-.29-.59-.72-1.04-1.34-1.28-.88-.34-1.93-.09-2.57.85-.41.6-.63,1.27-.76,1.98-.31,1.77-.35,3.54-.12,5.33.1.8.25,1.59.6,2.33.28.57.65,1.06,1.25,1.3.61.25,1.21.26,1.81-.05.53-.28.88-.71,1.14-1.23.31-.63.46-1.31.57-2,.13-.83.15-1.67.16-2.36h0Z"/>
  <path class="cls-1" d="m130.46,30.07c.07-.09.05-.18.05-.26-.04-2.23-.02-4.46-.02-6.68,0-.34,0-.69.02-1.03,0-.12-.04-.15-.15-.15-.19,0-.38,0-.56,0-.22,0-.24-.03-.24-.25,0-.17,0-.34.02-.52,0-.19.02-.2.2-.2.35,0,.7,0,1.06,0,.48,0,.97,0,1.45,0,.19,0,.2.02.2.2,0,.19,0,.38,0,.56,0,.15-.03.18-.18.18-.17,0-.34,0-.52,0-.21,0-.21.01-.21.21,0,.4,0,.8,0,1.2,0,3.64,0,7.27,0,10.91,0,.36,0,.31-.3.31-.26,0-.52,0-.77,0-.14,0-.23-.08-.29-.19-.3-.53-.6-1.06-.9-1.59-.49-.86-.97-1.73-1.46-2.59-.52-.92-1.04-1.85-1.57-2.77-.59-1.05-1.19-2.09-1.76-3.15-.05-.09-.11-.17-.16-.26,0-.01-.04-.02-.06-.02-.03,0-.04.04-.04.07,0,.12.03.25.03.37,0,.46,0,.92,0,1.38,0,1.91,0,3.82,0,5.72,0,.62,0,1.24,0,1.85,0,.2,0,.2.19.2.16,0,.31,0,.47,0,.19,0,.21.04.21.22,0,.16,0,.33,0,.49,0,.17-.04.2-.21.21-.84.06-1.69.03-2.53.03-.17,0-.2-.06-.2-.19,0-.2,0-.39,0-.59,0-.1.04-.14.14-.15.16,0,.31-.02.47-.03.08,0,.16-.01.23-.02.09-.01.14-.06.13-.16,0-.09,0-.17,0-.26,0-3.56,0-7.12,0-10.67,0-.1,0-.2.02-.3.01-.22,0-.23-.21-.24-.19,0-.38,0-.56,0-.17,0-.2-.02-.2-.18,0-.21,0-.42.01-.63,0-.09.05-.14.14-.15.03,0,.06,0,.09,0,.83,0,1.66-.03,2.49-.02.18,0,.28.06.37.22.5.88.99,1.75,1.5,2.62.72,1.23,1.42,2.48,2.13,3.72.44.77.85,1.55,1.33,2.29.05.08.05.2.17.26h0Z"/>
  <path class="cls-1" d="m40.37,28.36c.64,0,1.28,0,1.92,0,.26,0,.27.02.28.28,0,.16.01.31.01.47,0,.17-.02.19-.19.2-.16.01-.31.02-.47.02-.11,0-.15.05-.15.16,0,.17,0,.34,0,.52,0,.76,0,1.52,0,2.28,0,.16-.06.29-.15.41-.49.68-1.1,1.24-1.86,1.62-.59.29-1.22.45-1.87.48-.62.03-1.23.02-1.84-.12-.86-.2-1.66-.5-2.32-1.11-.52-.48-.9-1.05-1.17-1.71-.43-1.08-.57-2.2-.61-3.35-.04-1,0-2,.15-2.99.16-1,.44-1.95,1.02-2.8.55-.81,1.3-1.36,2.22-1.68.55-.19,1.12-.3,1.69-.36.75-.08,1.48.07,2.19.29.55.18,1.07.43,1.57.72.3.17.43.42.47.76.06.6.14,1.19.22,1.79.02.16,0,.18-.15.18-.24,0-.48,0-.73.02-.15,0-.21-.03-.21-.18,0-.42-.15-.8-.32-1.17-.24-.52-.63-.87-1.15-1.12-.6-.28-1.22-.35-1.85-.25-.81.12-1.39.59-1.81,1.29-.41.68-.62,1.43-.76,2.2-.22,1.21-.3,2.43-.19,3.67.09.99.24,1.97.58,2.91.15.41.35.8.63,1.15.52.66,1.21.94,2.04.89.66-.04,1.23-.3,1.75-.71.16-.13.23-.27.22-.46,0-.16,0-.31,0-.47,0-.81,0-1.63,0-2.44,0-.05,0-.11,0-.16,0-.12-.05-.18-.18-.19-.21-.02-.42,0-.63,0-.09,0-.17.01-.26,0-.18,0-.22-.03-.23-.21-.01-.22,0-.44-.01-.66,0-.12.05-.17.17-.17.13,0,.27,0,.4,0h1.59v-.02h0Z"/>
  <path class="cls-1" d="m107.13,26.06c0-1.32,0-2.64,0-3.96,0-.13-.04-.17-.16-.16-.18,0-.36,0-.54,0-.16,0-.18,0-.18-.17,0-.21.01-.42.01-.63,0-.12.07-.16.18-.16.13,0,.25,0,.38,0,.74,0,1.49,0,2.23,0,.21,0,.21,0,.2.21,0,.13,0,.27,0,.4,0,.23-.11.34-.33.35-.13,0-.27,0-.4.01-.16,0-.17.01-.17.18,0,.16,0,.33,0,.49,0,2.19,0,4.38,0,6.57,0,.74-.08,1.47-.25,2.19-.19.8-.52,1.54-1.07,2.16-.46.52-1.04.85-1.7,1.03-1.05.29-2.1.25-3.14-.09-.92-.31-1.63-.87-2.08-1.74-.33-.62-.49-1.29-.59-1.99-.13-.88-.12-1.76-.12-2.64,0-1.97,0-3.94,0-5.91,0-.26,0-.26-.27-.25-.17,0-.34,0-.52.02-.1,0-.15-.03-.15-.13,0-.23,0-.47,0-.7,0-.13.09-.14.19-.14.63,0,1.27-.01,1.9-.02.59,0,1.17,0,1.76,0,.27,0,.27,0,.27.27,0,.15.01.3.01.45,0,.23,0,.24-.23.25-.18,0-.36.02-.54.02-.09,0-.13.04-.13.13,0,.13,0,.25,0,.38,0,2.33,0,4.66,0,6.99,0,.83.04,1.66.24,2.47.2.81.65,1.42,1.47,1.69.51.17,1.04.21,1.57.08.75-.18,1.26-.66,1.6-1.34.25-.5.36-1.05.45-1.6.1-.6.12-1.21.12-1.82,0-.95,0-1.91,0-2.86h0,0Z"/>
  <path class="cls-1" d="m65.51,34.55c-.55,0-1.09,0-1.64,0-.22,0-.22-.01-.23-.23,0-.19,0-.37-.01-.56,0-.11.05-.15.16-.15.09,0,.19,0,.28,0,.23,0,.25-.02.19-.24-.08-.26-.17-.52-.25-.78-.23-.73-.45-1.46-.68-2.19-.12-.38-.06-.36-.5-.36-.87,0-1.74,0-2.6.01-.22,0-.23,0-.3.21-.21.65-.41,1.29-.61,1.94-.12.4-.24.81-.36,1.21-.05.17-.04.18.14.19.11,0,.22,0,.33,0,.15.01.18.04.18.18,0,.19,0,.37-.01.56,0,.1-.05.14-.16.15-.81.07-1.62.03-2.44.04-.11,0-.18-.04-.18-.16,0-.22,0-.44-.01-.66,0-.11.07-.14.17-.15.2,0,.41,0,.61-.02.2-.01.22-.04.27-.22.21-.77.45-1.53.69-2.29.29-.9.56-1.81.83-2.71.37-1.21.74-2.42,1.11-3.63.32-1.03.64-2.06.96-3.09.05-.17.12-.34.18-.51.04-.12.12-.17.25-.17.19,0,.38,0,.56,0,.15,0,.23.06.28.19.14.32.25.66.35,1,.37,1.28.79,2.53,1.19,3.8.64,2.02,1.29,4.05,1.93,6.07.12.39.24.78.36,1.16.02.06.04.12.06.18.05.16.16.24.33.24.19,0,.37.02.56.03.12,0,.17.05.16.17-.01.18-.02.36-.01.54,0,.11-.04.15-.15.17-.24.04-.48.05-.72.05-.42,0-.84,0-1.27,0h0s0,0,0,0Zm-3.9-9.56c-.09.04-.09.14-.12.22-.07.21-.12.44-.19.65-.3.87-.56,1.75-.84,2.63-.05.15-.1.3-.14.45-.04.15-.03.16.12.15.76-.03,1.51-.02,2.27-.02.06,0,.12.03.18-.02-.43-1.36-.86-2.71-1.28-4.06h0Z"/>
  <path class="cls-1" d="m134.89,33.59c.16.04.31,0,.45.01.23.01.24.02.23.24,0,.14,0,.28-.01.42-.01.22-.04.25-.26.27-.77.05-1.53.03-2.3.02-.22,0-.23-.02-.24-.25,0-.18,0-.36,0-.54,0-.12.05-.17.17-.17.2,0,.41.01.61,0,.23,0,.25-.02.29-.25.04-.27.14-.53.22-.79.33-1.1.67-2.2,1-3.29.55-1.79,1.1-3.58,1.66-5.37.28-.89.53-1.78.84-2.66.09-.24.11-.26.37-.27.16,0,.31,0,.47,0,.24,0,.26.01.33.24.21.65.41,1.29.62,1.94.35,1.1.7,2.2,1.05,3.3.44,1.39.88,2.78,1.32,4.17.26.81.51,1.62.76,2.44,0,.02.01.04.02.07.14.44.15.45.62.46.13,0,.25,0,.37.02.08,0,.13.05.13.14,0,.2,0,.39-.01.59,0,.1-.05.15-.16.16-.21.03-.42.05-.63.06-.95.01-1.89.03-2.84,0-.05,0-.09,0-.14,0-.18-.02-.2-.03-.21-.21,0-.17,0-.34,0-.52,0-.12.04-.17.16-.18.11,0,.22-.01.33-.03.14-.03.16-.06.13-.19-.05-.2-.12-.4-.18-.61-.25-.8-.5-1.59-.75-2.39-.01-.04-.03-.09-.04-.13-.08-.21-.09-.22-.32-.23-.76-.02-1.52,0-2.27,0-.16,0-.31,0-.47-.01-.21-.01-.21-.02-.28.19-.14.41-.27.82-.4,1.23-.19.62-.38,1.24-.57,1.86-.02.08-.06.16-.05.27h0Zm4-4.54c-.17-.45-.31-.9-.46-1.35-.15-.44-.29-.89-.44-1.33-.15-.44-.21-.91-.38-1.35-.08.03-.09.08-.1.12-.08.25-.16.51-.25.76-.34.97-.64,1.96-.95,2.94-.08.25-.08.25.17.24.02,0,.03,0,.05,0,.73,0,1.47,0,2.2,0,.05,0,.09,0,.17-.03h0Z"/>
  <path class="cls-1" d="m51.69,27.76v-5.61c0-.22,0-.22-.22-.22-.59,0-1.19.02-1.78.02-.28,0-.47.11-.62.35-.17.28-.29.59-.39.9-.04.14-.12.21-.26.22-.19,0-.37.02-.56.03-.11,0-.16-.05-.15-.16.01-.16.03-.33.05-.49.07-.52.14-1.04.22-1.56.04-.26.05-.27.31-.27,1.92,0,3.85-.02,5.77-.03,1.13,0,2.25.01,3.38.02.03,0,.06,0,.09,0,.18,0,.19.01.22.2.01.09.02.19.03.28.07.61.13,1.21.2,1.82.02.14,0,.16-.15.17-.2,0-.41,0-.61,0-.18,0-.22-.03-.26-.2-.04-.22-.09-.44-.18-.65,0-.02-.02-.04-.03-.07-.13-.39-.39-.57-.81-.57-.54,0-1.08-.02-1.62,0-.06,0-.13,0-.19,0-.11,0-.16.04-.15.16,0,.12,0,.23,0,.35,0,3.43.01,6.86.02,10.3,0,.2,0,.41.01.61,0,.23,0,.23.24.24.17,0,.34,0,.52.02.15,0,.16.02.16.17,0,.18,0,.36-.01.54,0,.17-.01.19-.18.2-.41.03-.83.06-1.24.06-.84,0-1.69-.01-2.53-.02-.25,0-.25,0-.25-.25,0-.18.01-.36.02-.54,0-.15.03-.17.19-.17.2,0,.39,0,.59,0,.19,0,.19,0,.19-.2v-5.63h-.01Z"/>
  <path class="cls-1" d="m69.33,27.74c0-1.74,0-3.49,0-5.23,0-.13,0-.27.01-.4.01-.13-.04-.17-.15-.18-.16-.02-.31,0-.47,0-.06,0-.12,0-.19,0-.08,0-.13-.04-.13-.13,0-.23,0-.45.02-.68,0-.09.05-.14.15-.14.1,0,.2,0,.3,0,1.14-.03,2.28-.02,3.42-.01.24,0,.24,0,.24.23,0,.17,0,.34,0,.52,0,.12-.04.17-.16.18-.17.01-.34.03-.51.05-.17.02-.18.03-.19.2,0,.05,0,.09,0,.14,0,3.43,0,6.87-.01,10.3,0,.27,0,.53,0,.8,0,.2,0,.2.21.21.09,0,.17,0,.26,0,1.25-.02,2.5,0,3.75-.03.09,0,.19-.02.28-.02.26,0,.42-.14.54-.35.16-.29.27-.6.33-.92.04-.22.05-.22.27-.22.19,0,.38,0,.56,0,.17,0,.17.02.15.18-.07.5-.14.99-.21,1.49-.03.2-.05.4-.08.6-.03.18-.05.19-.23.2-.24.01-.48.02-.73.02-2.37,0-4.74.01-7.11.01-.34,0-.67-.01-1.01-.03-.27-.01-.29-.03-.28-.31,0-.15.03-.3.04-.44,0-.14.08-.17.19-.18.2,0,.39-.01.59-.02.11,0,.15-.04.15-.16,0-1.9,0-3.8,0-5.7h-.02,0Z"/>
  <path class="cls-1" d="m84.96,20.97c.59,0,1.19,0,1.78,0,.32,0,.32,0,.33.32,0,.13.01.27.01.4,0,.2-.02.22-.23.23-.19,0-.39.02-.59.02-.11,0-.15.05-.15.16,0,.16,0,.31,0,.47,0,3.27,0,6.53,0,9.8,0,.88,0,1.77-.17,2.64-.11.64-.31,1.26-.67,1.81-.3.46-.71.8-1.2,1.06-.49.25-1.01.36-1.54.44-.1.02-.17-.02-.21-.11-.09-.18-.17-.37-.24-.56-.06-.15-.04-.19.12-.24.65-.19,1-.65,1.22-1.26.24-.67.3-1.37.32-2.08.05-2.05.02-4.1.02-6.14,0-1.85,0-3.71,0-5.56,0-.1,0-.2.01-.3.01-.1-.02-.15-.13-.15-.2,0-.39,0-.59,0-.25,0-.28-.03-.28-.29,0-.16.01-.31.02-.47.01-.18.04-.2.22-.2.3,0,.61,0,.91,0,.34,0,.67,0,1.01,0h0s0,0,0,0Z"/>
  <path class="cls-1" d="m145.3,27.74c0-1.76,0-3.52,0-5.28,0-.12,0-.24.02-.35.02-.12-.03-.15-.14-.16-.2-.03-.41-.02-.61-.04-.19-.01-.21-.03-.21-.23,0-.15,0-.3,0-.45,0-.22.02-.24.24-.25.38,0,.77-.02,1.15-.02.83,0,1.66,0,2.49,0,.25,0,.25,0,.25.25,0,.16,0,.31,0,.47,0,.19-.02.21-.22.22-.16,0-.31.02-.47.01-.11,0-.16.04-.16.15,0,.23-.02.47-.02.7,0,3.47,0,6.94,0,10.42,0,.43-.08.41.4.41,1.25-.01,2.5.01,3.75-.03.12,0,.23-.02.35-.02.3,0,.48-.15.59-.41.12-.27.22-.55.29-.84.04-.16.15-.24.32-.23.19,0,.38.01.56.01.11,0,.15.04.14.15-.1.67-.2,1.34-.31,2.02-.04.26-.06.27-.31.28-.45.01-.89.02-1.34.02-2.25,0-4.5.01-6.76.01-.25,0-.5-.02-.75-.03-.11,0-.17-.05-.19-.16-.04-.22-.02-.44,0-.66,0-.11.1-.11.18-.11.2,0,.41,0,.61-.01.16,0,.17-.02.17-.18v-5.68h-.01,0Z"/>
  <path class="cls-1" d="m28.12,27.79v-5.35c0-.09,0-.19,0-.28,0-.2,0-.21-.21-.22-.23,0-.47,0-.7,0-.21,0-.23-.02-.24-.22-.01-.19,0-.39-.02-.59,0-.11.05-.16.15-.16.11,0,.22,0,.33,0,1.18,0,2.36,0,3.54,0,.11,0,.22,0,.33,0,.17,0,.19.03.2.19,0,.19.02.37.02.56,0,.16-.01.18-.17.19-.23.02-.47.03-.7.04-.19.01-.2.03-.2.21,0,.2,0,.41,0,.61,0,3.54,0,7.08,0,10.62,0,.19,0,.2.19.2.23,0,.45,0,.68.01.18,0,.2.03.19.21,0,.17,0,.34,0,.52,0,.16-.01.18-.17.19-.23.02-.47.04-.7.04-1.12.01-2.24,0-3.35-.02-.33,0-.33,0-.34-.34,0-.13,0-.27,0-.4,0-.19,0-.2.19-.2.16,0,.31.01.47.01.12,0,.23,0,.35,0,.11,0,.16-.05.16-.17,0-.53,0-1.06,0-1.59,0-1.35,0-2.7,0-4.06h0,0Z"/>
  <path class="cls-1" d="m43.86,27.76c0-1.7,0-3.41,0-5.11,0-.18,0-.36.02-.54,0-.16,0-.18-.16-.18-.26,0-.52,0-.77.01-.23,0-.24,0-.24-.23,0-.17,0-.34,0-.52,0-.21.02-.22.23-.22,1.02,0,2.05,0,3.07,0,.34,0,.69,0,1.03,0,.17,0,.18.01.18.19,0,.18,0,.36,0,.54,0,.19-.02.21-.22.21-.19,0-.38,0-.56,0-.25,0-.26.01-.26.27,0,2.49,0,4.97,0,7.46,0,1.24,0,2.47,0,3.71,0,.23,0,.24.23.24.21,0,.42,0,.63,0,.12,0,.17.05.16.17,0,.17,0,.34,0,.52,0,.19,0,.21-.21.23-.27.02-.55.04-.82.05-1.09.03-2.17,0-3.26,0-.24,0-.24-.01-.24-.24,0-.18,0-.36-.01-.54,0-.16.02-.18.19-.18.27,0,.53,0,.8,0,.18,0,.18,0,.18-.19,0-1.88,0-3.77,0-5.65h0,0Z"/>
</svg>